{"title":"Orphan Black S05E01 The Few Who Dare 720p HDTV HEVC 2CH x265","magnet":"magnet:?xt=urn:btih:b7f3da748400e54a9989edcd3c18c91b457175ce&dn=Orphan+Black+S05E01+The+Few+Who+Dare+720p+HDTV+HEVC+2CH+x265&tr=udp%3A%2F%2Ftracker.leechers-paradise.org%3A6969&tr=udp%3A%2F%2Fzer0day.ch%3A1337&tr=udp%3A%2F%2Fopen.demonii.com%3A1337&tr=udp%3A%2F%2Ftracker.coppersurfer.tk%3A6969&tr=udp%3A%2F%2Fexodus.desync.com%3A6969","uploader":"nayhtut","categoryP":"video","categoryS":"hd___tv_shows","size":"337808045","seeders":"0","leechers":"0","description":"Source: Orphan Black S05E01 720p HDTV x264-AVS (1.05 GB)\r\n\r\n\r\nComplete name: Orphan.Black.S05E01.The.Few.Who.Dare.720p.HDTV.HEVC.2CH.x265.mkv\r\nFormat                                   : Matroska\r\nFormat version                           : Version 4 / Version 2\r\nFile size                                : 322 MiB\r\nDuration                                 : 42mn 13s\r\nOverall bit rate                         : 1 067 Kbps\r\nWriting application                      : Lavf57.25.100\r\n\r\nVideo\r\n\r\nID                                       : 1\r\nFormat                                   : V_MPEGH/ISO/HEVC\r\nDuration                                 : 42mn 13s\r\nBit rate                                 : 821 Kbps\r\nWidth                                    : 1 280 pixels\r\nHeight                                   : 718 pixels\r\nDisplay aspect ratio                     : 16:9\r\nFrame rate                               : 25.000 fps\r\nBits/(Pixel*Frame)                       : 0.036\r\nStream size                              : 248 MiB (77%)\r\nDefault                                  : Yes\r\nForced                                   : No\r\nDURATION                                 : 00:42:13.891000000\r\n\r\nAudio\r\n\r\nID                                       : 2\r\nFormat                                   : AC-3\r\nFormat/Info                              : Audio Coding 3\r\nMode extension                           : CM (complete main)\r\nFormat settings, Endianness              : Big\r\nCodec ID                                 : A_AC3\r\nDuration                                 : 42mn 13s\r\nBit rate mode                            : Constant\r\nBit rate                                 : 224 Kbps\r\nChannel(s)                               : 2 channels\r\nChannel positions                        : Front: L R\r\nSampling rate                            : 48.0 KHz\r\nBit depth                                : 32 bits\r\nCompression mode                         : Lossy\r\nStream size                              : 67.7 MiB (21%)\r\nWriting library                          : Lavc57.24.102 ac3\r\nDefault                                  : Yes\r\nForced                                   : No\r\nDURATION                                 : 00:42:13.855000000","last_updated":"2017-06-11T12:03:18.758Z","parsed":{"xt":"urn:btih:b7f3da748400e54a9989edcd3c18c91b457175ce","dn":"Orphan Black S05E01 The Few Who Dare 720p HDTV HEVC 2CH x265","tr":["udp://exodus.desync.com:6969","udp://open.demonii.com:1337","udp://tracker.coppersurfer.tk:6969","udp://tracker.leechers-paradise.org:6969","udp://zer0day.ch:1337"],"infoHash":"b7f3da748400e54a9989edcd3c18c91b457175ce","infoHashBuffer":{"type":"Buffer","data":[183,243,218,116,132,0,229,74,153,137,237,205,60,24,201,27,69,113,117,206]},"name":"Orphan Black S05E01 The Few Who Dare 720p HDTV HEVC 2CH x265","announce":["udp://exodus.desync.com:6969","udp://open.demonii.com:1337","udp://tracker.coppersurfer.tk:6969","udp://tracker.leechers-paradise.org:6969","udp://zer0day.ch:1337"],"urlList":[]}}